<?xml version="1.0" standalone="no"?><!DOCTYPE svg PUBLIC "-//W3C//DTD SVG 1.1//EN" "http://www.w3.org/Graphics/SVG/1.1/DTD/svg11.dtd"><svg t="1755187321879" class="icon" viewBox="0 0 1029 1024" version="1.1" xmlns="http://www.w3.org/2000/svg" p-id="22640" width="64.3125" height="64" xmlns:xlink="http://www.w3.org/1999/xlink"><path d="M705.41312 600.064l12.4928 30.59712c4.096 9.8304 8.06912 19.2512 12.00128 28.2624l11.50976 26.05056 5.61152 12.12416 10.81344 22.528 10.32192 20.2752c3.35872 6.3488 6.63552 12.288 9.8304 17.89952l4.75136 8.11008c16.87552 28.09856 28.01664 54.6816 33.21856 79.70816a90.03008 90.03008 0 1 1-41.69728 1.76128 213.52448 213.52448 0 0 0-20.72576-50.176l-5.89824-10.24c-3.31776-5.48864-6.71744-11.38688-10.15808-17.69472l-10.56768-19.94752a992.91136 992.91136 0 0 1-11.0592-22.24128l-11.42784-24.53504a1647.2064 1647.2064 0 0 1-11.8784-26.78784l-12.36992-29.0816a2560.73728 2560.73728 0 0 1-12.77952-31.41632 20.48 20.48 0 0 1 38.01088-15.23712z m111.12448 288.11264l-1.92512 2.74432a20.43904 20.43904 0 0 1-33.25952-2.70336 49.07008 49.07008 0 1 0 35.18464-0.04096zM506.38848 360.0384a135.04512 135.04512 0 0 1 48.20992 261.20192l26.624 132.95616a90.03008 90.03008 0 1 1-44.48256 7.70048l-26.33728-131.85024a134.38976 134.38976 0 0 1-75.40736-20.31616l-37.6832 76.22656-24.53504 50.95424-15.72864 33.5872-14.78656 33.01376-3.39968 8.192a89.98912 89.98912 0 0 1-46.2848 167.23968 90.03008 90.03008 0 0 1 0-180.06016l2.70336 0.12288 5.3248-12.77952 11.6736-26.2144 15.11424-32.52224 18.55488-38.87104 34.28352-70.12352 19.90656-40.05888a135.29088 135.29088 0 0 1-10.97728-16.26112l-23.552 19.57888-26.86976 21.83168-25.51808 20.2752-24.1664 18.67776-22.81472 17.12128-21.504 15.5648a854.8352 854.8352 0 0 1-58.368 38.25664 90.03008 90.03008 0 1 1-24.7808-37.6832l-3.97312 2.2528c10.24-5.81632 21.34016-12.6976 33.3824-20.64384l18.75968-12.6976c6.47168-4.5056 13.18912-9.25696 20.15232-14.29504l21.46304-15.85152 22.89664-17.44896 24.20736-19.00544 25.6-20.60288 26.91072-22.1184 22.1184-18.51392a135.04512 135.04512 0 0 1 133.28384-156.83584z m-213.8112 483.90144a44.97408 44.97408 0 1 0 0 89.94816 44.97408 44.97408 0 0 0 0-89.94816z m281.31328-49.07008a49.07008 49.07008 0 1 0 0 98.0992 49.07008 49.07008 0 0 0 0-98.0992z m360.07936-176.00512a90.03008 90.03008 0 1 1 0 180.0192 90.03008 90.03008 0 0 1 0-180.0192z m-832.7168 78.80704a44.97408 44.97408 0 1 0 0 89.94816 44.97408 44.97408 0 0 0 0-89.94816z m832.7168-37.84704a49.07008 49.07008 0 1 0 0 98.0992 49.07008 49.07008 0 0 0 0-98.0992zM146.30912 405.0944c41.90208 0 77.12768 28.672 87.16288 67.46112h104.12032v45.056H233.472A90.07104 90.07104 0 1 1 146.2272 405.0944z m731.42272 0a90.03008 90.03008 0 1 1-87.20384 112.55808h-104.12032v-45.056l104.12032-0.04096A90.07104 90.07104 0 0 1 877.7728 405.0944z m-371.34336 0.04096a89.98912 89.98912 0 1 0 0 179.97824 89.98912 89.98912 0 0 0 0-179.97824z m-360.12032 45.056a44.97408 44.97408 0 1 0 0 89.9072 44.97408 44.97408 0 0 0 0-89.94816z m731.46368 0a44.97408 44.97408 0 1 0 0 89.9072 44.97408 44.97408 0 0 0 0-89.94816z m44.97408-315.14624a90.03008 90.03008 0 1 1-63.44704 153.88672c-18.8416 13.80352-40.05888 31.21152-63.6928 52.14208l-21.79072 19.6608-23.01952 21.504c-3.97312 3.6864-7.94624 7.53664-12.00128 11.4688l-24.94464 24.28928-12.9024 12.82048a20.48 20.48 0 1 1-28.95872-28.95872l13.23008-13.14816 25.51808-24.90368c8.31488-7.9872 16.42496-15.68768 24.33024-23.06048l23.06048-21.13536a1013.1456 1013.1456 0 0 1 79.4624-65.536 90.03008 90.03008 0 0 1 85.1968-118.9888zM89.98912 225.0752a90.03008 90.03008 0 1 1 0 180.0192 90.03008 90.03008 0 0 1 0-180.0192zM180.10112 0a90.03008 90.03008 0 0 1 48.7424 165.6832C258.048 227.49184 299.8272 295.81312 354.18112 370.56512a20.48 20.48 0 0 1-33.13664 24.08448C264.192 316.45696 220.48768 244.736 190.0544 179.4048c-3.23584 0.45056-6.5536 0.65536-9.95328 0.65536a90.03008 90.03008 0 0 1 0-180.06016z m540.09856 45.01504a90.03008 90.03008 0 0 1 16.384 178.5856c-12.16512 44.8512-42.5984 94.65856-90.97216 149.95456a20.48 20.48 0 1 1-30.84288-26.95168c41.45152-47.39072 67.95264-89.2928 79.70816-125.3376a89.98912 89.98912 0 0 1 25.72288-176.25088zM90.03008 266.0352a49.07008 49.07008 0 1 0 0 98.0992 49.07008 49.07008 0 0 0 0-98.0992z m360.07936-176.00512a90.03008 90.03008 0 0 1 20.48 177.68448v58.61376a20.48 20.48 0 0 1-40.63232 3.6864l-0.32768-3.6864v-58.5728a90.07104 90.07104 0 0 1 20.48-177.7664z m472.59648 85.97504a49.07008 49.07008 0 0 0-46.40768 64.96256 20.39808 20.39808 0 0 1 10.6496 17.48992c8.84736 9.66656 21.62688 15.64672 35.75808 15.64672a49.07008 49.07008 0 1 0 0-98.0992z m-472.59648-45.056a49.07008 49.07008 0 1 0 0 98.14016 49.07008 49.07008 0 0 0 0-98.0992zM720.15872 86.016A49.07008 49.07008 0 0 0 712.704 183.5008a19.29216 19.29216 0 0 1 7.168-1.47456l3.6864 0.28672a20.56192 20.56192 0 0 1 4.01408 1.10592 49.07008 49.07008 0 0 0-7.41376-97.4848zM180.06016 40.96a49.07008 49.07008 0 1 0 0 98.14016 49.07008 49.07008 0 0 0 0-98.14016z" p-id="22641" fill="#2c2c2c"></path></svg>