<?xml version="1.0" standalone="no"?><!DOCTYPE svg PUBLIC "-//W3C//DTD SVG 1.1//EN" "http://www.w3.org/Graphics/SVG/1.1/DTD/svg11.dtd"><svg t="1755191927943" class="icon" viewBox="0 0 1024 1024" version="1.1" xmlns="http://www.w3.org/2000/svg" p-id="25980" xmlns:xlink="http://www.w3.org/1999/xlink" width="64" height="64"><path d="M928 64h-832l-32 34.432v827.072l32 34.496h832l32-34.496V98.432L928 64zM896 339.712v551.36H128V132.928h768v206.784z" fill="#2c2c2c" p-id="25981"></path><path d="M768 480.704a64 64 0 1 0 0-128 63.168 63.168 0 0 0-53.76 31.296H640V128H576v320h137.344a63.168 63.168 0 0 0 54.656 32.704zM318.656 224.704a64 64 0 1 0 0 128 62.912 62.912 0 0 0 53.696-31.36H448V896h64V257.344H373.312a63.296 63.296 0 0 0-54.656-32.64z" fill="#2c2c2c" p-id="25982"></path><path d="M320 651.648V448H64v64h192v138.688a63.232 63.232 0 0 0-32.704 54.656 64 64 0 1 0 128 0A62.976 62.976 0 0 0 320 651.648zM768 543.296a63.168 63.168 0 0 0-54.656 32.704H576v320h64v-256h74.24a63.168 63.168 0 0 0 53.76 31.296 64 64 0 1 0 0-128z" fill="#2c2c2c" p-id="25983"></path></svg>