<?xml version="1.0" standalone="no"?><!DOCTYPE svg PUBLIC "-//W3C//DTD SVG 1.1//EN" "http://www.w3.org/Graphics/SVG/1.1/DTD/svg11.dtd"><svg t="1755187500648" class="icon" viewBox="0 0 1024 1024" version="1.1" xmlns="http://www.w3.org/2000/svg" p-id="23805" xmlns:xlink="http://www.w3.org/1999/xlink" width="64" height="64"><path d="M264 504l81.6 108.8a32 32 0 1 1-51.2 38.4l-96-128a31.968 31.968 0 0 1 0-38.4l96-128a32.032 32.032 0 0 1 51.2 38.4l-81.6 108.768z m414.4 108.8a32 32 0 0 0 51.2 38.4l96-128a31.968 31.968 0 0 0 0-38.4l-96-128a32.032 32.032 0 0 0-51.2 38.4l81.6 108.8-81.6 108.768z m-167.168 26.144a32 32 0 1 1-62.464-13.824l64-288a32 32 0 1 1 62.464 13.888l-64 287.968zM168 136a32 32 0 0 0-32 32v688a32 32 0 0 0 32 32h688a32 32 0 0 0 32-32V168a32 32 0 0 0-32-32H168z m0-64h688a96 96 0 0 1 96 96v688a96 96 0 0 1-96 96H168a96 96 0 0 1-96-96V168a96 96 0 0 1 96-96z" p-id="23806" fill="#2c2c2c"></path></svg>